<svg width="969" height="189" viewBox="0 0 969 189" fill="none" xmlns="http://www.w3.org/2000/svg">
<path d="M121.6 54V76.2H77.4V186H49.8V76.2H5.4V54H121.6ZM128.267 186V86H152.067L153.867 105.6C156.534 98.6667 160.401 93.3333 165.467 89.6C170.667 85.8667 177.134 84 184.867 84C187.134 84 189.201 84.2 191.067 84.6C192.934 85 194.467 85.5333 195.667 86.2L192.467 109.2C191.134 108.667 189.467 108.267 187.467 108C185.601 107.733 183.134 107.6 180.067 107.6C176.067 107.6 172.201 108.6 168.467 110.6C164.734 112.467 161.667 115.4 159.267 119.4C156.867 123.267 155.667 128.2 155.667 134.2V186H128.267ZM267.884 122.2C267.884 116.467 266.218 112 262.884 108.8C259.684 105.6 255.418 104 250.084 104C245.151 104 240.818 105.267 237.084 107.8C233.351 110.333 230.618 114.533 228.884 120.4L205.484 113.2C207.751 104.4 212.684 97.3333 220.284 92C228.018 86.6667 238.351 84 251.284 84C260.084 84 267.751 85.4 274.284 88.2C280.818 90.8667 285.884 94.9333 289.484 100.4C293.218 105.867 295.084 112.733 295.084 121V161.6C295.084 166.667 297.484 169.2 302.284 169.2C304.551 169.2 306.684 168.867 308.684 168.2L307.084 185.2C303.618 186.933 299.284 187.8 294.084 187.8C289.418 187.8 285.218 187 281.484 185.4C277.751 183.8 274.818 181.4 272.684 178.2C270.551 174.867 269.484 170.733 269.484 165.8V165L274.284 164.2C273.484 169.267 271.284 173.6 267.684 177.2C264.084 180.667 259.684 183.333 254.484 185.2C249.418 187.067 244.151 188 238.684 188C231.884 188 226.018 187 221.084 185C216.151 182.867 212.351 179.8 209.684 175.8C207.018 171.8 205.684 166.867 205.684 161C205.684 153.533 208.084 147.467 212.884 142.8C217.684 138 224.551 134.733 233.484 133L271.084 125.4L270.884 142.4L246.884 147.2C242.351 148.133 238.884 149.4 236.484 151C234.218 152.467 233.084 154.933 233.084 158.4C233.084 161.733 234.284 164.267 236.684 166C239.218 167.733 242.218 168.6 245.684 168.6C248.484 168.6 251.218 168.267 253.884 167.6C256.551 166.933 258.951 165.867 261.084 164.4C263.218 162.933 264.884 160.933 266.084 158.4C267.284 155.867 267.884 152.8 267.884 149.2V122.2ZM370.738 84C379.671 84 387.204 85.3333 393.338 88C399.604 90.5333 404.604 94.0667 408.338 98.6C412.204 103 414.938 107.933 416.537 113.4L390.938 122.6C389.604 116.6 387.338 112.067 384.138 109C380.938 105.933 376.604 104.4 371.138 104.4C366.071 104.4 361.738 105.6 358.138 108C354.538 110.267 351.804 113.8 349.938 118.6C348.071 123.267 347.138 129.133 347.138 136.2C347.138 143.267 348.071 149.133 349.938 153.8C351.938 158.467 354.738 161.933 358.338 164.2C362.071 166.467 366.404 167.6 371.338 167.6C375.338 167.6 378.738 166.933 381.538 165.6C384.338 164.133 386.604 162.067 388.338 159.4C390.204 156.733 391.471 153.533 392.138 149.8L416.938 157.8C415.471 163.8 412.738 169.067 408.738 173.6C404.738 178.133 399.604 181.667 393.338 184.2C387.071 186.733 379.804 188 371.538 188C361.271 188 352.204 185.933 344.338 181.8C336.471 177.667 330.404 171.733 326.138 164C321.871 156.267 319.738 146.933 319.738 136C319.738 125.067 321.871 115.733 326.138 108C330.404 100.267 336.404 94.3333 344.138 90.2C351.871 86.0667 360.738 84 370.738 84ZM540.028 86L493.828 134.2L488.428 136.8L458.428 169L458.028 139.8L508.828 86H540.028ZM465.628 42.2V186H438.228V42.2H465.628ZM497.628 117.8L542.428 186H511.428L478.828 133.8L497.628 117.8ZM597.173 188C587.04 188 577.773 186.2 569.373 182.6C561.107 179 554.373 173.933 549.173 167.4L564.973 151.4C568.173 156.2 572.44 160.133 577.773 163.2C583.107 166.267 589.44 167.8 596.773 167.8C601.973 167.8 606.107 167.067 609.173 165.6C612.373 164 613.973 161.533 613.973 158.2C613.973 156.067 613.24 154.267 611.773 152.8C610.307 151.2 607.373 149.933 602.973 149L585.373 145.4C573.773 143 565.507 139.4 560.573 134.6C555.773 129.667 553.373 123.333 553.373 115.6C553.373 110.133 554.973 105 558.173 100.2C561.507 95.4 566.44 91.5333 572.973 88.6C579.507 85.5333 587.64 84 597.373 84C607.373 84 616.04 85.6 623.373 88.8C630.84 91.8667 636.707 96.4667 640.973 102.6L624.573 118.6C621.64 113.933 617.773 110.4 612.973 108C608.307 105.467 603.373 104.2 598.173 104.2C594.44 104.2 591.24 104.6 588.573 105.4C585.907 106.2 583.907 107.333 582.573 108.8C581.24 110.133 580.573 111.867 580.573 114C580.573 116.133 581.507 118 583.373 119.6C585.24 121.067 588.64 122.333 593.573 123.4L613.973 127.6C623.84 129.6 630.907 133 635.173 137.8C639.44 142.467 641.573 148.133 641.573 154.8C641.573 161.2 639.84 166.933 636.373 172C633.04 176.933 628.04 180.867 621.373 183.8C614.84 186.6 606.773 188 597.173 188ZM698.823 55.4V153.4C698.823 158.2 700.023 161.733 702.423 164C704.957 166.133 708.357 167.2 712.623 167.2C715.957 167.2 718.89 166.733 721.423 165.8C723.957 164.733 726.223 163.333 728.223 161.6L732.623 179.8C729.423 182.333 725.423 184.333 720.623 185.8C715.823 187.267 710.757 188 705.423 188C698.757 188 692.823 187 687.623 185C682.557 183 678.557 179.8 675.623 175.4C672.823 171 671.423 165.133 671.423 157.8V63L698.823 55.4ZM730.823 86V106.4H653.023V86H730.823ZM807.338 122.2C807.338 116.467 805.671 112 802.338 108.8C799.138 105.6 794.871 104 789.538 104C784.604 104 780.271 105.267 776.538 107.8C772.804 110.333 770.071 114.533 768.338 120.4L744.938 113.2C747.204 104.4 752.138 97.3333 759.738 92C767.471 86.6667 777.804 84 790.738 84C799.538 84 807.204 85.4 813.738 88.2C820.271 90.8667 825.338 94.9333 828.938 100.4C832.671 105.867 834.538 112.733 834.538 121V161.6C834.538 166.667 836.938 169.2 841.738 169.2C844.004 169.2 846.138 168.867 848.138 168.2L846.538 185.2C843.071 186.933 838.738 187.8 833.538 187.8C828.871 187.8 824.671 187 820.938 185.4C817.204 183.8 814.271 181.4 812.138 178.2C810.004 174.867 808.938 170.733 808.938 165.8V165L813.738 164.2C812.938 169.267 810.738 173.6 807.138 177.2C803.538 180.667 799.138 183.333 793.938 185.2C788.871 187.067 783.604 188 778.138 188C771.338 188 765.471 187 760.538 185C755.604 182.867 751.804 179.8 749.137 175.8C746.471 171.8 745.138 166.867 745.138 161C745.138 153.533 747.538 147.467 752.338 142.8C757.138 138 764.004 134.733 772.938 133L810.538 125.4L810.338 142.4L786.338 147.2C781.804 148.133 778.338 149.4 775.938 151C773.671 152.467 772.538 154.933 772.538 158.4C772.538 161.733 773.738 164.267 776.138 166C778.671 167.733 781.671 168.6 785.138 168.6C787.938 168.6 790.671 168.267 793.338 167.6C796.004 166.933 798.404 165.867 800.538 164.4C802.671 162.933 804.338 160.933 805.538 158.4C806.738 155.867 807.338 152.8 807.338 149.2V122.2ZM865.181 186V86H888.981L890.781 105.6C893.448 98.6667 897.315 93.3333 902.381 89.6C907.581 85.8667 914.048 84 921.781 84C924.048 84 926.115 84.2 927.981 84.6C929.848 85 931.381 85.5333 932.581 86.2L929.381 109.2C928.048 108.667 926.381 108.267 924.381 108C922.515 107.733 920.048 107.6 916.981 107.6C912.981 107.6 909.115 108.6 905.381 110.6C901.648 112.467 898.581 115.4 896.181 119.4C893.781 123.267 892.581 128.2 892.581 134.2V186H865.181Z" fill="white"/>
</svg>
